<svg xmlns="http://www.w3.org/2000/svg" width="1280" height="1280" viewBox="0 0 1280 1280" version="1.1"><path d="M 246.331 449.937 C 241.455 452.150, 240 454.409, 240 459.760 C 240 464.052, 242.411 467.075, 247.315 468.933 C 249.224 469.657, 275.943 469.999, 330.315 469.998 C 419.958 469.997, 415.436 470.354, 419.396 462.959 C 421.237 459.520, 421.240 459.307, 419.472 455.582 C 418.191 452.883, 416.444 451.198, 413.576 449.895 C 409.719 448.143, 405.235 448.044, 330 448.044 C 254.133 448.044, 250.309 448.130, 246.331 449.937 M 243.949 525.571 C 237.440 528.291, 235.163 535.395, 239.168 540.486 C 243.726 546.281, 236.559 546, 380 546 C 523.441 546, 516.274 546.281, 520.832 540.486 C 523.936 536.540, 523.579 533.003, 519.614 528.417 L 516.229 524.500 381.864 524.294 C 265.036 524.115, 247.037 524.281, 243.949 525.571 M 241.415 578.421 C 237.677 580.049, 233.999 584.497, 234.004 587.385 C 234.010 590.859, 237.808 596.022, 241.490 597.560 C 246.608 599.699, 505.329 599.725, 510.444 597.588 C 515.696 595.394, 518 592.537, 518 588.223 C 518 583.548, 515.764 580.217, 511.401 578.394 C 506.527 576.358, 246.095 576.384, 241.415 578.421 M 988.259 625.750 C 984.995 631.112, 980.829 638.200, 979.002 641.500 C 977.176 644.800, 971.928 653.864, 967.341 661.642 L 959 675.785 959 803.392 L 959 931 977.004 931 L 995.008 931 994.966 773.500 C 994.942 686.875, 994.759 616, 994.559 616 C 994.358 616, 991.523 620.388, 988.259 625.750 M 689.009 773.948 L 688.997 931 706.999 931 L 725 931 724.994 803.750 L 724.988 676.500 713.913 657.500 C 694.986 625.028, 690.747 617.961, 689.870 617.420 C 689.403 617.131, 689.016 687.569, 689.009 773.948" stroke="none" fill="#baafc7" fill-rule="evenodd"/><path d="M 197.325 395.459 C 195.579 396.219, 193.433 397.936, 192.555 399.275 C 191.105 401.488, 190.962 423.479, 190.990 639.968 C 191.018 862.165, 191.134 878.419, 192.716 881.096 C 197.372 888.978, 210.576 888.628, 214.423 880.522 C 215.845 877.525, 216 854.525, 216 646.599 L 216 416 326.500 416 L 437 416 437 452.500 L 437 489 488 489 L 539 489 539 559.500 L 539 630 427.250 630.096 C 365.788 630.149, 309.313 630.111, 301.750 630.012 L 288 629.831 288 768.856 L 288 907.880 246.250 908.190 C 207.724 908.476, 204.207 908.646, 200.706 910.385 C 190.877 915.268, 192.713 927.521, 203.653 930.060 C 205.769 930.551, 231.238 930.963, 260.250 930.976 L 313 931 313 792 L 313 653 439.016 653 L 565.032 653 564.977 523.500 L 564.923 394 382.711 394.039 C 229.996 394.072, 199.986 394.302, 197.325 395.459 M 620.806 402.250 C 622.455 405.137, 629.429 417.175, 636.305 429 C 656.532 463.787, 660.669 471.060, 665.031 479.500 C 667.305 483.900, 670.434 489.525, 671.984 492 C 673.534 494.475, 677.715 501.675, 681.275 508 C 684.835 514.325, 691.410 525.909, 695.887 533.743 C 700.364 541.576, 707.692 554.401, 712.172 562.243 C 716.652 570.084, 723.224 581.675, 726.776 588 C 730.328 594.325, 735.358 603.100, 737.953 607.500 C 740.548 611.900, 748.010 624.950, 754.536 636.500 C 766.143 657.042, 775.684 673.794, 787.914 695.104 L 794 705.709 794 817.854 L 794 930 812.043 930 L 830.086 930 829.793 813.750 L 829.500 697.500 826.792 692 C 824.219 686.773, 819.792 678.883, 801.123 646.257 C 790.808 628.230, 779.551 608.536, 768.965 590 C 764.411 582.025, 757.211 569.425, 752.965 562 C 734.322 529.397, 728.317 518.855, 722.775 509 C 719.528 503.225, 714.258 494, 711.065 488.500 C 707.871 483, 700.163 469.500, 693.935 458.500 C 687.708 447.500, 679.212 432.557, 675.056 425.293 C 670.900 418.029, 665.582 408.692, 663.237 404.543 L 658.974 397 638.391 397 L 617.809 397 620.806 402.250 M 1020.185 405.250 C 1017.462 409.788, 1012.328 418.675, 1008.776 425 C 1002.743 435.743, 997.698 444.605, 977.890 479.257 C 956.719 516.296, 953.290 522.311, 947.257 533 C 943.687 539.325, 939.292 546.975, 937.490 550 C 935.688 553.025, 929.379 564.050, 923.470 574.500 C 917.561 584.950, 909.188 599.688, 904.863 607.250 C 900.538 614.813, 893.462 627.188, 889.137 634.750 C 870.742 666.918, 860.048 685.850, 857.365 691 L 854.500 696.500 854.204 813.250 L 853.908 930 871.954 930 L 890 930 890 817.232 L 890 704.464 892.318 700.982 C 893.592 699.067, 896.353 694.350, 898.452 690.500 C 900.551 686.650, 904.626 679.450, 907.509 674.500 C 910.391 669.550, 917.592 656.950, 923.512 646.500 C 929.431 636.050, 937.747 621.425, 941.991 614 C 946.235 606.575, 953.367 594.084, 957.840 586.242 C 962.314 578.401, 969.517 565.801, 973.847 558.242 C 978.177 550.684, 983.205 541.800, 985.021 538.500 C 986.836 535.200, 990.681 528.450, 993.565 523.500 C 998.191 515.562, 1013.075 489.187, 1025.848 466.293 C 1033.482 452.610, 1042.442 437.019, 1053.873 417.528 C 1059.993 407.093, 1065 398.206, 1065 397.778 C 1065 397.350, 1056.030 397, 1045.067 397 L 1025.134 397 1020.185 405.250 M 604 684.500 L 604 898 568.476 898 L 532.952 898 533.226 914.750 L 533.500 931.500 579.500 931.487 C 629.157 931.474, 628.953 931.494, 634.739 926.049 C 640.464 920.663, 640.083 935.196, 640.020 724.364 L 639.962 530.779 634.369 520.639 C 631.293 515.063, 628.315 509.929, 627.750 509.231 C 627.185 508.533, 623.706 502.683, 620.018 496.231 C 607.409 474.173, 605.499 471.019, 604.750 471.009 C 604.337 471.004, 604 567.075, 604 684.500 M 1074.175 478 C 1071.797 482.125, 1068.375 487.975, 1066.571 491 C 1064.767 494.025, 1058.726 504.404, 1053.146 514.064 L 1043 531.629 1043.022 724.064 C 1043.043 910.947, 1043.099 916.621, 1044.943 920.684 C 1047.321 925.922, 1052.806 929.662, 1060.078 931.007 C 1063.398 931.620, 1082.368 931.919, 1108.035 931.761 L 1150.500 931.500 1150.774 914.750 L 1151.048 898 1115.026 898 L 1079.005 898 1078.752 684.250 L 1078.500 470.500 1074.175 478 M 722.168 671.750 L 724.500 675.500 725.008 803.500 L 725.515 931.500 725.758 804.088 L 726 676.676 723.458 672.338 C 722.060 669.952, 720.673 668, 720.376 668 C 720.080 668, 720.886 669.688, 722.168 671.750" stroke="none" fill="#6d5287" fill-rule="evenodd"/></svg>